<?xml version="1.0" encoding="UTF-8" standalone="no"?><svg xmlns="http://www.w3.org/2000/svg" xmlns:xlink="http://www.w3.org/1999/xlink" contentScriptType="application/ecmascript" contentStyleType="text/css" height="506px" preserveAspectRatio="none" style="width:1870px;height:506px;" version="1.1" viewBox="0 0 1870 506" width="1870px" zoomAndPan="magnify"><defs><filter height="300%" id="fkdbpve35g6ob" width="300%" x="-1" y="-1"><feGaussianBlur result="blurOut" stdDeviation="2.0"/><feColorMatrix in="blurOut" result="blurOut2" type="matrix" values="0 0 0 0 0 0 0 0 0 0 0 0 0 0 0 0 0 0 .4 0"/><feOffset dx="4.0" dy="4.0" in="blurOut2" result="blurOut3"/><feBlend in="SourceGraphic" in2="blurOut3" mode="normal"/></filter></defs><g><!--cluster org.junit.jupiter--><polygon fill="#FFFFFF" filter="url(#fkdbpve35g6ob)" points="22,160,150,160,157,182.2969,648,182.2969,648,383,22,383,22,160" style="stroke: #000000; stroke-width: 1.5;"/><line style="stroke: #000000; stroke-width: 1.5;" x1="22" x2="157" y1="182.2969" y2="182.2969"/><text fill="#000000" font-family="Open Sans" font-size="14" font-weight="bold" lengthAdjust="spacingAndGlyphs" textLength="122" x="26" y="174.9951">org.junit.jupiter</text><!--cluster org.junit.vintage--><polygon fill="#FFFFFF" filter="url(#fkdbpve35g6ob)" points="722,160,857,160,864,182.2969,912,182.2969,912,383,722,383,722,160" style="stroke: #000000; stroke-width: 1.5;"/><line style="stroke: #000000; stroke-width: 1.5;" x1="722" x2="864" y1="182.2969" y2="182.2969"/><text fill="#000000" font-family="Open Sans" font-size="14" font-weight="bold" lengthAdjust="spacingAndGlyphs" textLength="129" x="726" y="174.9951">org.junit.vintage</text><!--cluster org.junit.platform--><polygon fill="#FFFFFF" filter="url(#fkdbpve35g6ob)" points="936,24,1079,24,1086,46.2969,1598,46.2969,1598,494,936,494,936,24" style="stroke: #000000; stroke-width: 1.5;"/><line style="stroke: #000000; stroke-width: 1.5;" x1="936" x2="1086" y1="46.2969" y2="46.2969"/><text fill="#000000" font-family="Open Sans" font-size="14" font-weight="bold" lengthAdjust="spacingAndGlyphs" textLength="137" x="940" y="38.9951">org.junit.platform</text><!--cluster org.opentest4j--><polygon fill="#FFFFFF" filter="url(#fkdbpve35g6ob)" points="635,407,758,407,765,429.2969,768,429.2969,768,494,635,494,635,407" style="stroke: #000000; stroke-width: 1.5;"/><line style="stroke: #000000; stroke-width: 1.5;" x1="635" x2="765" y1="429.2969" y2="429.2969"/><text fill="#000000" font-family="Open Sans" font-size="14" font-weight="bold" lengthAdjust="spacingAndGlyphs" textLength="117" x="639" y="421.9951">org.opentest4j</text><!--cluster org.apiguardian--><polygon fill="#FFFFFF" filter="url(#fkdbpve35g6ob)" points="1622,24,1752,24,1759,46.2969,1848,46.2969,1848,287,1622,287,1622,24" style="stroke: #000000; stroke-width: 1.5;"/><line style="stroke: #000000; stroke-width: 1.5;" x1="1622" x2="1759" y1="46.2969" y2="46.2969"/><text fill="#000000" font-family="Open Sans" font-size="14" font-weight="bold" lengthAdjust="spacingAndGlyphs" textLength="124" x="1626" y="38.9951">org.apiguardian</text><!--entity jupiter_api--><rect fill="#FEFECE" filter="url(#fkdbpve35g6ob)" height="36.2969" style="stroke: #A80036; stroke-width: 1.5;" width="122" x="496" y="331"/><rect fill="#FEFECE" height="5" style="stroke: #A80036; stroke-width: 1.5;" width="10" x="491" y="336"/><rect fill="#FEFECE" height="5" style="stroke: #A80036; stroke-width: 1.5;" width="10" x="491" y="357.2969"/><text fill="#000000" font-family="Open Sans" font-size="14" lengthAdjust="spacingAndGlyphs" textLength="102" x="506" y="353.9951">junit-jupiter-api</text><!--entity jupiter_engine--><rect fill="#FEFECE" filter="url(#fkdbpve35g6ob)" height="36.2969" style="stroke: #A80036; stroke-width: 1.5;" width="150" x="482" y="195"/><rect fill="#FEFECE" height="5" style="stroke: #A80036; stroke-width: 1.5;" width="10" x="477" y="200"/><rect fill="#FEFECE" height="5" style="stroke: #A80036; stroke-width: 1.5;" width="10" x="477" y="221.2969"/><text fill="#000000" font-family="Open Sans" font-size="14" lengthAdjust="spacingAndGlyphs" textLength="130" x="492" y="217.9951">junit-jupiter-engine</text><!--entity jupiter_params--><rect fill="#FEFECE" filter="url(#fkdbpve35g6ob)" height="36.2969" style="stroke: #A80036; stroke-width: 1.5;" width="153" x="38.5" y="195"/><rect fill="#FEFECE" height="5" style="stroke: #A80036; stroke-width: 1.5;" width="10" x="33.5" y="200"/><rect fill="#FEFECE" height="5" style="stroke: #A80036; stroke-width: 1.5;" width="10" x="33.5" y="221.2969"/><text fill="#000000" font-family="Open Sans" font-size="14" lengthAdjust="spacingAndGlyphs" textLength="133" x="48.5" y="217.9951">junit-jupiter-params</text><!--entity jupiter_migration_support--><rect fill="#FEFECE" filter="url(#fkdbpve35g6ob)" height="36.2969" style="stroke: #A80036; stroke-width: 1.5;" width="220" x="227" y="195"/><rect fill="#FEFECE" height="5" style="stroke: #A80036; stroke-width: 1.5;" width="10" x="222" y="200"/><rect fill="#FEFECE" height="5" style="stroke: #A80036; stroke-width: 1.5;" width="10" x="222" y="221.2969"/><text fill="#000000" font-family="Open Sans" font-size="14" lengthAdjust="spacingAndGlyphs" textLength="200" x="237" y="217.9951">junit-jupiter-migrationsupport</text><!--entity vintage_engine--><rect fill="#FEFECE" filter="url(#fkdbpve35g6ob)" height="36.2969" style="stroke: #A80036; stroke-width: 1.5;" width="157" x="738.5" y="195"/><rect fill="#FEFECE" height="5" style="stroke: #A80036; stroke-width: 1.5;" width="10" x="733.5" y="200"/><rect fill="#FEFECE" height="5" style="stroke: #A80036; stroke-width: 1.5;" width="10" x="733.5" y="221.2969"/><text fill="#000000" font-family="Open Sans" font-size="14" lengthAdjust="spacingAndGlyphs" textLength="137" x="748.5" y="217.9951">junit-vintage-engine</text><!--entity junit4--><rect fill="#FEFECE" filter="url(#fkdbpve35g6ob)" height="36.2969" style="stroke: #A80036; stroke-width: 1.5;" width="83" x="738.5" y="331"/><rect fill="#FEFECE" height="5" style="stroke: #A80036; stroke-width: 1.5;" width="10" x="733.5" y="336"/><rect fill="#FEFECE" height="5" style="stroke: #A80036; stroke-width: 1.5;" width="10" x="733.5" y="357.2969"/><text fill="#000000" font-family="Open Sans" font-size="14" lengthAdjust="spacingAndGlyphs" textLength="63" x="748.5" y="353.9951">junit:junit</text><!--entity commons--><rect fill="#FEFECE" filter="url(#fkdbpve35g6ob)" height="36.2969" style="stroke: #A80036; stroke-width: 1.5;" width="184" x="952" y="442"/><rect fill="#FEFECE" height="5" style="stroke: #A80036; stroke-width: 1.5;" width="10" x="947" y="447"/><rect fill="#FEFECE" height="5" style="stroke: #A80036; stroke-width: 1.5;" width="10" x="947" y="468.2969"/><text fill="#000000" font-family="Open Sans" font-size="14" lengthAdjust="spacingAndGlyphs" textLength="164" x="962" y="464.9951">junit-platform-commons</text><!--entity console--><rect fill="#FEFECE" filter="url(#fkdbpve35g6ob)" height="36.2969" style="stroke: #A80036; stroke-width: 1.5;" width="170" x="1412" y="59"/><rect fill="#FEFECE" height="5" style="stroke: #A80036; stroke-width: 1.5;" width="10" x="1407" y="64"/><rect fill="#FEFECE" height="5" style="stroke: #A80036; stroke-width: 1.5;" width="10" x="1407" y="85.2969"/><text fill="#000000" font-family="Open Sans" font-size="14" lengthAdjust="spacingAndGlyphs" textLength="150" x="1422" y="81.9951">junit-platform-console</text><!--entity engine--><rect fill="#FEFECE" filter="url(#fkdbpve35g6ob)" height="36.2969" style="stroke: #A80036; stroke-width: 1.5;" width="163" x="952.5" y="331"/><rect fill="#FEFECE" height="5" style="stroke: #A80036; stroke-width: 1.5;" width="10" x="947.5" y="336"/><rect fill="#FEFECE" height="5" style="stroke: #A80036; stroke-width: 1.5;" width="10" x="947.5" y="357.2969"/><text fill="#000000" font-family="Open Sans" font-size="14" lengthAdjust="spacingAndGlyphs" textLength="143" x="962.5" y="353.9951">junit-platform-engine</text><!--entity launcher--><rect fill="#FEFECE" filter="url(#fkdbpve35g6ob)" height="36.2969" style="stroke: #A80036; stroke-width: 1.5;" width="175" x="1148.5" y="195"/><rect fill="#FEFECE" height="5" style="stroke: #A80036; stroke-width: 1.5;" width="10" x="1143.5" y="200"/><rect fill="#FEFECE" height="5" style="stroke: #A80036; stroke-width: 1.5;" width="10" x="1143.5" y="221.2969"/><text fill="#000000" font-family="Open Sans" font-size="14" lengthAdjust="spacingAndGlyphs" textLength="155" x="1158.5" y="217.9951">junit-platform-launcher</text><!--entity runner--><rect fill="#FEFECE" filter="url(#fkdbpve35g6ob)" height="36.2969" style="stroke: #A80036; stroke-width: 1.5;" width="161" x="952.5" y="59"/><rect fill="#FEFECE" height="5" style="stroke: #A80036; stroke-width: 1.5;" width="10" x="947.5" y="64"/><rect fill="#FEFECE" height="5" style="stroke: #A80036; stroke-width: 1.5;" width="10" x="947.5" y="85.2969"/><text fill="#000000" font-family="Open Sans" font-size="14" lengthAdjust="spacingAndGlyphs" textLength="141" x="962.5" y="81.9951">junit-platform-runner</text><!--entity suite_api--><rect fill="#FEFECE" filter="url(#fkdbpve35g6ob)" height="36.2969" style="stroke: #A80036; stroke-width: 1.5;" width="174" x="1151" y="331"/><rect fill="#FEFECE" height="5" style="stroke: #A80036; stroke-width: 1.5;" width="10" x="1146" y="336"/><rect fill="#FEFECE" height="5" style="stroke: #A80036; stroke-width: 1.5;" width="10" x="1146" y="357.2969"/><text fill="#000000" font-family="Open Sans" font-size="14" lengthAdjust="spacingAndGlyphs" textLength="154" x="1161" y="353.9951">junit-platform-suite-api</text><!--entity surefire--><rect fill="#FEFECE" filter="url(#fkdbpve35g6ob)" height="36.2969" style="stroke: #A80036; stroke-width: 1.5;" width="228" x="1149" y="59"/><rect fill="#FEFECE" height="5" style="stroke: #A80036; stroke-width: 1.5;" width="10" x="1144" y="64"/><rect fill="#FEFECE" height="5" style="stroke: #A80036; stroke-width: 1.5;" width="10" x="1144" y="85.2969"/><text fill="#000000" font-family="Open Sans" font-size="14" lengthAdjust="spacingAndGlyphs" textLength="208" x="1159" y="81.9951">junit-platform-surefire-provider</text><!--entity opentest4j--><rect fill="#FEFECE" filter="url(#fkdbpve35g6ob)" height="36.2969" style="stroke: #A80036; stroke-width: 1.5;" width="95" x="653.5" y="442"/><rect fill="#FEFECE" height="5" style="stroke: #A80036; stroke-width: 1.5;" width="10" x="648.5" y="447"/><rect fill="#FEFECE" height="5" style="stroke: #A80036; stroke-width: 1.5;" width="10" x="648.5" y="468.2969"/><text fill="#000000" font-family="Open Sans" font-size="14" lengthAdjust="spacingAndGlyphs" textLength="75" x="663.5" y="464.9951">opentest4j</text><!--entity apiguardian--><rect fill="#FEFECE" filter="url(#fkdbpve35g6ob)" height="36.2969" style="stroke: #A80036; stroke-width: 1.5;" width="125" x="1672.5" y="59"/><rect fill="#FEFECE" height="5" style="stroke: #A80036; stroke-width: 1.5;" width="10" x="1667.5" y="64"/><rect fill="#FEFECE" height="5" style="stroke: #A80036; stroke-width: 1.5;" width="10" x="1667.5" y="85.2969"/><text fill="#000000" font-family="Open Sans" font-size="14" lengthAdjust="spacingAndGlyphs" textLength="105" x="1682.5" y="81.9951">apiguardian-api</text><path d="M1638.5,155 L1638.5,270.9297 A0,0 0 0 0 1638.5,270.9297 L1831.5,270.9297 A0,0 0 0 0 1831.5,270.9297 L1831.5,165 L1821.5,155 L1739,155 L1735,95.244 L1731,155 L1638.5,155 A0,0 0 0 0 1638.5,155 " fill="#FFFFFF" filter="url(#fkdbpve35g6ob)" style="stroke: #A80036; stroke-width: 1.0;"/><path d="M1821.5,155 L1821.5,165 L1831.5,165 L1821.5,155 " fill="#FFFFFF" style="stroke: #A80036; stroke-width: 1.0;"/><text fill="#000000" font-family="Open Sans" font-size="13" lengthAdjust="spacingAndGlyphs" textLength="118" x="1644.5" y="172.0669">All artifacts except</text><text fill="#000000" font-family="Open Sans" font-size="13" lengthAdjust="spacingAndGlyphs" textLength="158" x="1644.5" y="187.1997">opentest4j and junit:junit</text><text fill="#000000" font-family="Open Sans" font-size="13" lengthAdjust="spacingAndGlyphs" textLength="172" x="1644.5" y="202.3325">have a dependency on this</text><text fill="#000000" font-family="Open Sans" font-size="13" lengthAdjust="spacingAndGlyphs" textLength="154" x="1644.5" y="217.4653">artifact. The edges have</text><text fill="#000000" font-family="Open Sans" font-size="13" lengthAdjust="spacingAndGlyphs" textLength="147" x="1644.5" y="232.5981">been omitted from this</text><text fill="#000000" font-family="Open Sans" font-size="13" lengthAdjust="spacingAndGlyphs" textLength="149" x="1644.5" y="247.731">diagram for the sake of</text><text fill="#000000" font-family="Open Sans" font-size="13" lengthAdjust="spacingAndGlyphs" textLength="70" x="1644.5" y="262.8638">readability.</text><!--link jupiter_api to opentest4j--><path d="M579.5,367.031 C605.029,386.355 646.649,417.8596 673.932,438.5109 " fill="none" id="jupiter_api-opentest4j" style="stroke: #A80036; stroke-width: 1.0; stroke-dasharray: 7.0,7.0;"/><polygon fill="#A80036" points="678.183,441.7286,673.4205,433.1078,674.1961,438.7112,668.5927,439.4868,678.183,441.7286" style="stroke: #A80036; stroke-width: 1.0;"/><!--link jupiter_api to commons--><path d="M618.306,366.157 C649.288,374.087 687.53,383.518 722,391 C740.997,395.123 745.94,395.178 765,399 C831.724,412.3788 907.165,428.6736 962.761,440.9039 " fill="none" id="jupiter_api-commons" style="stroke: #A80036; stroke-width: 1.0; stroke-dasharray: 7.0,7.0;"/><polygon fill="#A80036" points="967.74,442,959.8113,436.1575,962.8571,440.9243,958.0902,443.9701,967.74,442" style="stroke: #A80036; stroke-width: 1.0;"/><!--link jupiter_engine to engine--><path d="M585.439,231.127 C617.505,249.674 671.741,278.773 722,295 C762.801,308.174 869.819,324.984 947.149,336.1 " fill="none" id="jupiter_engine-engine" style="stroke: #A80036; stroke-width: 1.0; stroke-dasharray: 7.0,7.0;"/><polygon fill="#A80036" points="952.198,336.824,943.8573,331.5864,947.2487,336.1139,942.7211,339.5053,952.198,336.824" style="stroke: #A80036; stroke-width: 1.0;"/><!--link jupiter_engine to jupiter_api--><path d="M557,231.244 C557,255.365 557,299.199 557,325.753 " fill="none" id="jupiter_engine-jupiter_api" style="stroke: #A80036; stroke-width: 1.0; stroke-dasharray: 7.0,7.0;"/><polygon fill="#A80036" points="557,330.822,561,321.822,557,325.822,553,321.822,557,330.822" style="stroke: #A80036; stroke-width: 1.0;"/><!--link jupiter_params to jupiter_api--><path d="M129.334,231.111 C146.273,250.075 176.317,279.964 209,295 C300.493,337.093 418.4,346.955 490.8,348.64 " fill="none" id="jupiter_params-jupiter_api" style="stroke: #A80036; stroke-width: 1.0; stroke-dasharray: 7.0,7.0;"/><polygon fill="#A80036" points="495.933,348.748,487.0196,344.5586,490.9341,348.6423,486.8504,352.5568,495.933,348.748" style="stroke: #A80036; stroke-width: 1.0;"/><!--link jupiter_migration_support to jupiter_api--><path d="M363.031,231.138 C388.536,247.803 428.621,273.655 464,295 C482.923,306.417 504.334,318.664 521.838,328.506 " fill="none" id="jupiter_migration_support-jupiter_api" style="stroke: #A80036; stroke-width: 1.0; stroke-dasharray: 7.0,7.0;"/><polygon fill="#A80036" points="526.2,330.954,520.3115,323.0594,521.8404,328.5057,516.3941,330.0347,526.2,330.954" style="stroke: #A80036; stroke-width: 1.0;"/><!--link jupiter_migration_support to junit4--><path d="M358.029,231.22 C382.109,249.991 423.479,279.425 464,295 C488.706,304.496 651.332,329.166 733.152,341.2 " fill="none" id="jupiter_migration_support-junit4" style="stroke: #A80036; stroke-width: 1.0; stroke-dasharray: 7.0,7.0;"/><polygon fill="#A80036" points="738.422,341.974,730.0993,336.7077,733.4751,341.2469,728.936,344.6227,738.422,341.974" style="stroke: #A80036; stroke-width: 1.0;"/><!--link console to launcher--><path d="M1463.68,95.107 C1414.99,120.106 1324.66,166.483 1273.63,192.679 " fill="none" id="console-launcher" style="stroke: #A80036; stroke-width: 1.0; stroke-dasharray: 7.0,7.0;"/><polygon fill="#A80036" points="1269.12,194.995,1278.9532,194.4397,1273.5673,192.7099,1275.2971,187.324,1269.12,194.995" style="stroke: #A80036; stroke-width: 1.0;"/><!--link launcher to engine--><path d="M1210.01,231.244 C1172.58,256.069 1103.69,301.773 1064.1,328.031 " fill="none" id="launcher-engine" style="stroke: #A80036; stroke-width: 1.0; stroke-dasharray: 7.0,7.0;"/><polygon fill="#A80036" points="1059.89,330.822,1069.5991,329.1687,1064.0533,328.0531,1065.1689,322.5073,1059.89,330.822" style="stroke: #A80036; stroke-width: 1.0;"/><!--link engine to opentest4j--><path d="M983.594,367.097 C961.624,374.507 935.559,383.245 912,391 C858.142,408.728 796.395,428.5714 753.674,442.2248 " fill="none" id="engine-opentest4j" style="stroke: #A80036; stroke-width: 1.0; stroke-dasharray: 7.0,7.0;"/><polygon fill="#A80036" points="748.821,443.7753,758.6117,444.8443,753.5835,442.2525,756.1752,437.2243,748.821,443.7753" style="stroke: #A80036; stroke-width: 1.0;"/><!--link engine to commons--><path d="M1035.56,367.031 C1037.28,385.798 1040.06,416.0547 1041.95,436.6998 " fill="none" id="engine-commons" style="stroke: #A80036; stroke-width: 1.0; stroke-dasharray: 7.0,7.0;"/><polygon fill="#A80036" points="1042.42,441.7286,1045.5796,432.4003,1041.9624,436.7496,1037.6132,433.1324,1042.42,441.7286" style="stroke: #A80036; stroke-width: 1.0;"/><!--link runner to launcher--><path d="M1059.12,95.244 C1096.73,120.069 1165.97,165.773 1205.75,192.031 " fill="none" id="runner-launcher" style="stroke: #A80036; stroke-width: 1.0; stroke-dasharray: 7.0,7.0;"/><polygon fill="#A80036" points="1209.98,194.822,1204.6761,186.5233,1205.8084,192.0657,1200.266,193.1979,1209.98,194.822" style="stroke: #A80036; stroke-width: 1.0;"/><!--link runner to suite_api--><path d="M1036.57,95.167 C1045.66,135.038 1073.16,235.06 1131,295 C1144.88,309.386 1163.49,320.454 1181.29,328.663 " fill="none" id="runner-suite_api" style="stroke: #A80036; stroke-width: 1.0; stroke-dasharray: 7.0,7.0;"/><polygon fill="#A80036" points="1186.28,330.903,1179.7002,323.5745,1181.7165,328.8599,1176.4312,330.8761,1186.28,330.903" style="stroke: #A80036; stroke-width: 1.0;"/><!--link runner to junit4--><path d="M952.424,85.882 C869.759,95.83 749.353,116.135 721,152 C681.585,201.857 695.116,236.954 721,295 C726.793,307.992 737.52,319.13 748.254,327.794 " fill="none" id="runner-junit4" style="stroke: #A80036; stroke-width: 1.0; stroke-dasharray: 7.0,7.0;"/><polygon fill="#A80036" points="752.2,330.872,747.5675,322.1806,748.2589,327.7951,742.6444,328.4865,752.2,330.872" style="stroke: #A80036; stroke-width: 1.0;"/><!--link suite_api to commons--><path d="M1207.69,367.031 C1172.77,386.651 1115.5,418.828 1078.79,439.4525 " fill="none" id="suite_api-commons" style="stroke: #A80036; stroke-width: 1.0; stroke-dasharray: 7.0,7.0;"/><polygon fill="#A80036" points="1074.42,441.9088,1084.2244,440.974,1078.7757,439.4536,1080.2961,434.0049,1074.42,441.9088" style="stroke: #A80036; stroke-width: 1.0;"/><!--link surefire to launcher--><path d="M1259.53,95.244 C1254.67,119.365 1245.83,163.199 1240.48,189.753 " fill="none" id="surefire-launcher" style="stroke: #A80036; stroke-width: 1.0; stroke-dasharray: 7.0,7.0;"/><polygon fill="#A80036" points="1239.46,194.822,1245.1609,186.7908,1240.4488,189.9208,1237.3189,185.2087,1239.46,194.822" style="stroke: #A80036; stroke-width: 1.0;"/><!--link vintage_engine to engine--><path d="M840.687,231.177 C864.371,248.099 902.055,274.342 936,295 C955.345,306.773 977.493,318.863 995.834,328.517 " fill="none" id="vintage_engine-engine" style="stroke: #A80036; stroke-width: 1.0; stroke-dasharray: 7.0,7.0;"/><polygon fill="#A80036" points="1000.411,330.918,994.2998,323.1944,995.9834,328.5949,990.5829,330.2785,1000.411,330.918" style="stroke: #A80036; stroke-width: 1.0;"/><!--link vintage_engine to junit4--><path d="M812.239,231.244 C805.578,255.365 793.475,299.199 786.143,325.753 " fill="none" id="vintage_engine-junit4" style="stroke: #A80036; stroke-width: 1.0; stroke-dasharray: 7.0,7.0;"/><polygon fill="#A80036" points="784.743,330.822,790.9949,323.2119,786.0743,326.0025,783.2837,321.0819,784.743,330.822" style="stroke: #A80036; stroke-width: 1.0;"/><!--
@startuml
skinparam {
    defaultFontName Open Sans
}

package org.junit.jupiter {
    [junit-jupiter-api] as jupiter_api
    [junit-jupiter-engine] as jupiter_engine
    [junit-jupiter-params] as jupiter_params
    [junit-jupiter-migrationsupport] as jupiter_migration_support
}

package org.junit.vintage {
    [junit-vintage-engine] as vintage_engine
    [junit:junit] as junit4
}

package org.junit.platform {
    [junit-platform-commons] as commons
    [junit-platform-console] as console
    [junit-platform-engine] as engine
    [junit-platform-launcher] as launcher
    [junit-platform-runner] as runner
    [junit-platform-suite-api] as suite_api
    [junit-platform-surefire-provider] as surefire
}

package org.opentest4j {
    [opentest4j]
}

package org.apiguardian {
    [apiguardian-api] as apiguardian
    note bottom of apiguardian #white
        All artifacts except
        opentest4j and junit:junit
        have a dependency on this
        artifact. The edges have
        been omitted from this
        diagram for the sake of
        readability.
    endnote
}

jupiter_api ..> opentest4j
jupiter_api ..> commons

jupiter_engine ..> engine
jupiter_engine ..> jupiter_api

jupiter_params ..> jupiter_api
jupiter_migration_support ..> jupiter_api
jupiter_migration_support ..> junit4

console ..> launcher

launcher ..> engine

engine ..> opentest4j
engine ..> commons

runner ..> launcher
runner ..> suite_api
runner ..> junit4

suite_api ..> commons

surefire ..> launcher

vintage_engine ..> engine
vintage_engine ..> junit4
@enduml

PlantUML version 1.2018.01(Sun Jan 28 19:08:22 CET 2018)
(APACHE source distribution)
Java Runtime: Java(TM) SE Runtime Environment
JVM: Java HotSpot(TM) 64-Bit Server VM
Java Version: 10.0.2+13
Operating System: Linux
OS Version: 4.4.0-133-generic
Default Encoding: UTF-8
Language: en
Country: NZ
--></g></svg>